<svg width="1440" height="322" viewBox="0 0 1440 322" fill="none" xmlns="http://www.w3.org/2000/svg">
<rect width="1440" height="322" fill="white"/>
<rect x="536" y="37" width="300" height="82" stroke="#3E8A8E" stroke-width="2"/>
<path d="M0 52H457.5C464.404 52 470 57.5964 470 64.5C470 71.4036 464.404 77 457.5 77H0V52Z" fill="#E3E3E3" fill-opacity="0.59"/>
<path d="M961 64.5C961 57.5964 966.596 52 973.5 52H1440V77H973.5C966.596 77 961 71.4036 961 64.5Z" fill="#E3E3E3" fill-opacity="0.59"/>
<rect x="124" width="298" height="25" rx="12.5" fill="#E3E3E3" fill-opacity="0.59"/>
<rect x="951" width="298" height="25" rx="12.5" fill="#E3E3E3" fill-opacity="0.59"/>
<path d="M1224 123.5C1224 116.596 1229.6 111 1236.5 111H1440V136H1236.5C1229.6 136 1224 130.404 1224 123.5Z" fill="#E3E3E3" fill-opacity="0.59"/>
<rect x="888" y="232" width="222" height="25" rx="12.5" fill="#E3E3E3" fill-opacity="0.59"/>
<rect x="1141" y="297" width="277" height="25" rx="12.5" fill="#E3E3E3" fill-opacity="0.59"/>
<path d="M1279 244.5C1279 237.596 1284.6 232 1291.5 232H1440V257H1291.5C1284.6 257 1279 251.404 1279 244.5Z" fill="#E3E3E3" fill-opacity="0.59"/>
<rect x="854" y="180" width="579" height="25" rx="12.5" fill="#E3E3E3" fill-opacity="0.59"/>
<rect x="109" y="104" width="162" height="25" rx="12.5" fill="#E3E3E3" fill-opacity="0.59"/>
<path d="M0 172H397.5C404.404 172 410 177.596 410 184.5C410 191.404 404.404 197 397.5 197H0V172Z" fill="#E3E3E3" fill-opacity="0.59"/>
<path d="M0 226H520.5C527.404 226 533 231.596 533 238.5C533 245.404 527.404 251 520.5 251H0V226Z" fill="#E3E3E3" fill-opacity="0.59"/>
<path d="M0 280H213.5C220.404 280 226 285.596 226 292.5C226 299.404 220.404 305 213.5 305H0V280Z" fill="#E3E3E3" fill-opacity="0.59"/>
<rect y="94" width="79" height="49" fill="#93CBCA" fill-opacity="0.25"/>
<rect x="1003" y="98" width="194" height="49" fill="#93CBCA" fill-opacity="0.25"/>
<rect x="1141" y="214" width="111" height="49" fill="#93CBCA" fill-opacity="0.25"/>
<path d="M0 106H59.5C66.4036 106 72 111.596 72 118.5C72 125.404 66.4036 131 59.5 131H0V106Z" fill="#93CBCA"/>
<rect x="1017" y="110" width="166" height="25" rx="12.5" fill="#93CBCA"/>
<rect x="1148" y="226" width="93" height="25" rx="12.5" fill="#93CBCA"/>
<rect x="829" y="29" width="15" height="15" fill="#3E8A8E"/>
<rect x="829" y="110" width="15" height="15" fill="#3E8A8E"/>
<rect x="528" y="110" width="15" height="15" fill="#3E8A8E"/>
<rect x="528" y="28" width="15" height="15" fill="#3E8A8E"/>
<path d="M841.152 134.794L836.843 116.299L853.284 125.802L845.116 127.277L844.995 127.298L844.938 127.408L841.152 134.794Z" fill="black" stroke="#E3E3E3" stroke-width="0.5"/>
<line x1="844.354" y1="126.646" x2="849.308" y2="131.601" stroke="black"/>
<path d="M649.288 25.112C648.243 25.112 647.283 24.8667 646.408 24.376C645.533 23.8853 644.84 23.208 644.328 22.344C643.816 21.4693 643.56 20.4827 643.56 19.384C643.56 18.296 643.816 17.32 644.328 16.456C644.84 15.5813 645.533 14.8987 646.408 14.408C647.283 13.9173 648.243 13.672 649.288 13.672C650.344 13.672 651.304 13.9173 652.168 14.408C653.043 14.8987 653.731 15.5813 654.232 16.456C654.744 17.32 655 18.296 655 19.384C655 20.4827 654.744 21.4693 654.232 22.344C653.731 23.208 653.043 23.8853 652.168 24.376C651.293 24.8667 650.333 25.112 649.288 25.112ZM649.288 23.112C649.96 23.112 650.552 22.9627 651.064 22.664C651.576 22.3547 651.976 21.9173 652.264 21.352C652.552 20.7867 652.696 20.1307 652.696 19.384C652.696 18.6373 652.552 17.9867 652.264 17.432C651.976 16.8667 651.576 16.4347 651.064 16.136C650.552 15.8373 649.96 15.688 649.288 15.688C648.616 15.688 648.019 15.8373 647.496 16.136C646.984 16.4347 646.584 16.8667 646.296 17.432C646.008 17.9867 645.864 18.6373 645.864 19.384C645.864 20.1307 646.008 20.7867 646.296 21.352C646.584 21.9173 646.984 22.3547 647.496 22.664C648.019 22.9627 648.616 23.112 649.288 23.112ZM665.035 16.136V25H662.779V23.88C662.491 24.264 662.112 24.568 661.643 24.792C661.184 25.0053 660.683 25.112 660.139 25.112C659.445 25.112 658.832 24.968 658.299 24.68C657.765 24.3813 657.344 23.9493 657.035 23.384C656.736 22.808 656.587 22.1253 656.587 21.336V16.136H658.827V21.016C658.827 21.72 659.003 22.264 659.355 22.648C659.707 23.0213 660.187 23.208 660.795 23.208C661.413 23.208 661.899 23.0213 662.251 22.648C662.603 22.264 662.779 21.72 662.779 21.016V16.136H665.035ZM669.485 17.512C669.773 17.0427 670.146 16.6747 670.605 16.408C671.074 16.1413 671.607 16.008 672.205 16.008V18.36H671.613C670.909 18.36 670.375 18.5253 670.013 18.856C669.661 19.1867 669.485 19.7627 669.485 20.584V25H667.245V16.136H669.485V17.512ZM682.033 26.968L680.337 24.936C679.868 25.0533 679.388 25.112 678.897 25.112C677.852 25.112 676.892 24.8667 676.017 24.376C675.143 23.8853 674.449 23.208 673.937 22.344C673.425 21.4693 673.169 20.4827 673.169 19.384C673.169 18.296 673.425 17.32 673.937 16.456C674.449 15.5813 675.143 14.8987 676.017 14.408C676.892 13.9173 677.852 13.672 678.897 13.672C679.953 13.672 680.913 13.9173 681.777 14.408C682.652 14.8987 683.34 15.5813 683.841 16.456C684.353 17.32 684.609 18.296 684.609 19.384C684.609 20.376 684.396 21.2827 683.969 22.104C683.553 22.9147 682.983 23.576 682.257 24.088L684.817 26.968H682.033ZM675.473 19.384C675.473 20.1307 675.617 20.7867 675.905 21.352C676.193 21.9173 676.593 22.3547 677.105 22.664C677.628 22.9627 678.225 23.112 678.897 23.112C679.569 23.112 680.161 22.9627 680.673 22.664C681.185 22.3547 681.585 21.9173 681.873 21.352C682.161 20.7867 682.305 20.1307 682.305 19.384C682.305 18.6373 682.161 17.9867 681.873 17.432C681.585 16.8667 681.185 16.4347 680.673 16.136C680.161 15.8373 679.569 15.688 678.897 15.688C678.225 15.688 677.628 15.8373 677.105 16.136C676.593 16.4347 676.193 16.8667 675.905 17.432C675.617 17.9867 675.473 18.6373 675.473 19.384ZM694.675 16.136V25H692.419V23.88C692.131 24.264 691.752 24.568 691.283 24.792C690.824 25.0053 690.323 25.112 689.779 25.112C689.086 25.112 688.472 24.968 687.939 24.68C687.406 24.3813 686.984 23.9493 686.675 23.384C686.376 22.808 686.227 22.1253 686.227 21.336V16.136H688.467V21.016C688.467 21.72 688.643 22.264 688.995 22.648C689.347 23.0213 689.827 23.208 690.435 23.208C691.054 23.208 691.539 23.0213 691.891 22.648C692.243 22.264 692.419 21.72 692.419 21.016V16.136H694.675ZM699.125 17.512C699.413 17.0427 699.787 16.6747 700.245 16.408C700.715 16.1413 701.248 16.008 701.845 16.008V18.36H701.253C700.549 18.36 700.016 18.5253 699.653 18.856C699.301 19.1867 699.125 19.7627 699.125 20.584V25H696.885V16.136H699.125V17.512ZM703.802 13.832H706.154L704.426 17.864H702.89L703.802 13.832ZM707.184 20.536C707.184 19.64 707.36 18.8453 707.712 18.152C708.075 17.4587 708.56 16.9253 709.168 16.552C709.787 16.1787 710.475 15.992 711.232 15.992C711.894 15.992 712.47 16.1253 712.96 16.392C713.462 16.6587 713.862 16.9947 714.16 17.4V16.136H716.416V25H714.16V23.704C713.872 24.12 713.472 24.4667 712.96 24.744C712.459 25.0107 711.878 25.144 711.216 25.144C710.47 25.144 709.787 24.952 709.168 24.568C708.56 24.184 708.075 23.6453 707.712 22.952C707.36 22.248 707.184 21.4427 707.184 20.536ZM714.16 20.568C714.16 20.024 714.054 19.56 713.84 19.176C713.627 18.7813 713.339 18.4827 712.976 18.28C712.614 18.0667 712.224 17.96 711.808 17.96C711.392 17.96 711.008 18.0613 710.656 18.264C710.304 18.4667 710.016 18.7653 709.792 19.16C709.579 19.544 709.472 20.0027 709.472 20.536C709.472 21.0693 709.579 21.5387 709.792 21.944C710.016 22.3387 710.304 22.6427 710.656 22.856C711.019 23.0693 711.403 23.176 711.808 23.176C712.224 23.176 712.614 23.0747 712.976 22.872C713.339 22.6587 713.627 22.36 713.84 21.976C714.054 21.5813 714.16 21.112 714.16 20.568ZM723.516 16.008C724.572 16.008 725.425 16.344 726.076 17.016C726.727 17.6773 727.052 18.6053 727.052 19.8V25H724.812V20.104C724.812 19.4 724.636 18.8613 724.284 18.488C723.932 18.104 723.452 17.912 722.844 17.912C722.225 17.912 721.735 18.104 721.372 18.488C721.02 18.8613 720.844 19.4 720.844 20.104V25H718.604V16.136H720.844V17.24C721.143 16.856 721.521 16.5573 721.98 16.344C722.449 16.12 722.961 16.008 723.516 16.008Z" fill="#C0C0C0"/>
<path d="M540.989 158.864H538.621L540.349 154.832H541.901L540.989 158.864ZM544.221 158.864H541.853L543.581 154.832H545.133L544.221 158.864ZM554.454 154.832V156.64H551.478V166H549.238V156.64H546.262V154.832H554.454ZM561.08 157.008C561.752 157.008 562.35 157.157 562.872 157.456C563.395 157.744 563.8 158.176 564.088 158.752C564.387 159.317 564.536 160 564.536 160.8V166H562.296V161.104C562.296 160.4 562.12 159.861 561.768 159.488C561.416 159.104 560.936 158.912 560.328 158.912C559.71 158.912 559.219 159.104 558.856 159.488C558.504 159.861 558.328 160.4 558.328 161.104V166H556.088V154.16H558.328V158.24C558.616 157.856 559 157.557 559.48 157.344C559.96 157.12 560.494 157.008 561.08 157.008ZM567.803 156.08C567.408 156.08 567.077 155.957 566.811 155.712C566.555 155.456 566.427 155.141 566.427 154.768C566.427 154.395 566.555 154.085 566.811 153.84C567.077 153.584 567.408 153.456 567.803 153.456C568.197 153.456 568.523 153.584 568.779 153.84C569.045 154.085 569.179 154.395 569.179 154.768C569.179 155.141 569.045 155.456 568.779 155.712C568.523 155.957 568.197 156.08 567.803 156.08ZM568.907 157.136V166H566.667V157.136H568.907ZM574.512 166.144C573.786 166.144 573.136 166.016 572.56 165.76C571.984 165.493 571.525 165.136 571.184 164.688C570.853 164.24 570.672 163.744 570.64 163.2H572.896C572.938 163.541 573.104 163.824 573.392 164.048C573.69 164.272 574.058 164.384 574.496 164.384C574.922 164.384 575.253 164.299 575.488 164.128C575.733 163.957 575.856 163.739 575.856 163.472C575.856 163.184 575.706 162.971 575.408 162.832C575.12 162.683 574.656 162.523 574.016 162.352C573.354 162.192 572.81 162.027 572.384 161.856C571.968 161.685 571.605 161.424 571.296 161.072C570.997 160.72 570.848 160.245 570.848 159.648C570.848 159.157 570.986 158.709 571.264 158.304C571.552 157.899 571.957 157.579 572.48 157.344C573.013 157.109 573.637 156.992 574.352 156.992C575.408 156.992 576.25 157.259 576.88 157.792C577.509 158.315 577.856 159.024 577.92 159.92H575.776C575.744 159.568 575.594 159.291 575.328 159.088C575.072 158.875 574.725 158.768 574.288 158.768C573.882 158.768 573.568 158.843 573.344 158.992C573.13 159.141 573.024 159.349 573.024 159.616C573.024 159.915 573.173 160.144 573.472 160.304C573.77 160.453 574.234 160.608 574.864 160.768C575.504 160.928 576.032 161.093 576.448 161.264C576.864 161.435 577.221 161.701 577.52 162.064C577.829 162.416 577.989 162.885 578 163.472C578 163.984 577.856 164.443 577.568 164.848C577.29 165.253 576.885 165.573 576.352 165.808C575.829 166.032 575.216 166.144 574.512 166.144ZM584.787 156.08C584.392 156.08 584.062 155.957 583.795 155.712C583.539 155.456 583.411 155.141 583.411 154.768C583.411 154.395 583.539 154.085 583.795 153.84C584.062 153.584 584.392 153.456 584.787 153.456C585.182 153.456 585.507 153.584 585.763 153.84C586.03 154.085 586.163 154.395 586.163 154.768C586.163 155.141 586.03 155.456 585.763 155.712C585.507 155.957 585.182 156.08 584.787 156.08ZM585.891 157.136V166H583.651V157.136H585.891ZM591.496 166.144C590.771 166.144 590.12 166.016 589.544 165.76C588.968 165.493 588.509 165.136 588.168 164.688C587.837 164.24 587.656 163.744 587.624 163.2H589.88C589.923 163.541 590.088 163.824 590.376 164.048C590.675 164.272 591.043 164.384 591.48 164.384C591.907 164.384 592.237 164.299 592.472 164.128C592.717 163.957 592.84 163.739 592.84 163.472C592.84 163.184 592.691 162.971 592.392 162.832C592.104 162.683 591.64 162.523 591 162.352C590.339 162.192 589.795 162.027 589.368 161.856C588.952 161.685 588.589 161.424 588.28 161.072C587.981 160.72 587.832 160.245 587.832 159.648C587.832 159.157 587.971 158.709 588.248 158.304C588.536 157.899 588.941 157.579 589.464 157.344C589.997 157.109 590.621 156.992 591.336 156.992C592.392 156.992 593.235 157.259 593.864 157.792C594.493 158.315 594.84 159.024 594.904 159.92H592.76C592.728 159.568 592.579 159.291 592.312 159.088C592.056 158.875 591.709 158.768 591.272 158.768C590.867 158.768 590.552 158.843 590.328 158.992C590.115 159.141 590.008 159.349 590.008 159.616C590.008 159.915 590.157 160.144 590.456 160.304C590.755 160.453 591.219 160.608 591.848 160.768C592.488 160.928 593.016 161.093 593.432 161.264C593.848 161.435 594.205 161.701 594.504 162.064C594.813 162.416 594.973 162.885 594.984 163.472C594.984 163.984 594.84 164.443 594.552 164.848C594.275 165.253 593.869 165.573 593.336 165.808C592.813 166.032 592.2 166.144 591.496 166.144ZM603.243 158.976V163.264C603.243 163.563 603.313 163.781 603.451 163.92C603.601 164.048 603.846 164.112 604.187 164.112H605.227V166H603.819C601.931 166 600.987 165.083 600.987 163.248V158.976H599.931V157.136H600.987V154.944H603.243V157.136H605.227V158.976H603.243ZM611.83 157.008C612.502 157.008 613.1 157.157 613.622 157.456C614.145 157.744 614.55 158.176 614.838 158.752C615.137 159.317 615.286 160 615.286 160.8V166H613.046V161.104C613.046 160.4 612.87 159.861 612.518 159.488C612.166 159.104 611.686 158.912 611.078 158.912C610.46 158.912 609.969 159.104 609.606 159.488C609.254 159.861 609.078 160.4 609.078 161.104V166H606.838V154.16H609.078V158.24C609.366 157.856 609.75 157.557 610.23 157.344C610.71 157.12 611.244 157.008 611.83 157.008ZM625.657 161.376C625.657 161.696 625.635 161.984 625.593 162.24H619.113C619.166 162.88 619.39 163.381 619.785 163.744C620.179 164.107 620.665 164.288 621.241 164.288C622.073 164.288 622.665 163.931 623.017 163.216H625.433C625.177 164.069 624.686 164.773 623.961 165.328C623.235 165.872 622.345 166.144 621.289 166.144C620.435 166.144 619.667 165.957 618.985 165.584C618.313 165.2 617.785 164.661 617.401 163.968C617.027 163.275 616.84 162.475 616.84 161.568C616.84 160.651 617.027 159.845 617.401 159.152C617.774 158.459 618.297 157.925 618.969 157.552C619.641 157.179 620.414 156.992 621.289 156.992C622.131 156.992 622.883 157.173 623.545 157.536C624.217 157.899 624.734 158.416 625.097 159.088C625.47 159.749 625.657 160.512 625.657 161.376ZM623.337 160.736C623.326 160.16 623.118 159.701 622.713 159.36C622.307 159.008 621.811 158.832 621.225 158.832C620.67 158.832 620.201 159.003 619.817 159.344C619.443 159.675 619.214 160.139 619.129 160.736H623.337ZM633.344 158.432C633.632 158.005 634.027 157.659 634.528 157.392C635.04 157.125 635.621 156.992 636.272 156.992C637.029 156.992 637.712 157.179 638.32 157.552C638.939 157.925 639.424 158.459 639.776 159.152C640.139 159.835 640.32 160.629 640.32 161.536C640.32 162.443 640.139 163.248 639.776 163.952C639.424 164.645 638.939 165.184 638.32 165.568C637.712 165.952 637.029 166.144 636.272 166.144C635.611 166.144 635.029 166.016 634.528 165.76C634.037 165.493 633.643 165.152 633.344 164.736V166H631.104V154.16H633.344V158.432ZM638.032 161.536C638.032 161.003 637.92 160.544 637.696 160.16C637.483 159.765 637.195 159.467 636.832 159.264C636.48 159.061 636.096 158.96 635.68 158.96C635.275 158.96 634.891 159.067 634.528 159.28C634.176 159.483 633.888 159.781 633.664 160.176C633.451 160.571 633.344 161.035 633.344 161.568C633.344 162.101 633.451 162.565 633.664 162.96C633.888 163.355 634.176 163.659 634.528 163.872C634.891 164.075 635.275 164.176 635.68 164.176C636.096 164.176 636.48 164.069 636.832 163.856C637.195 163.643 637.483 163.339 637.696 162.944C637.92 162.549 638.032 162.08 638.032 161.536ZM645.884 166.144C645.03 166.144 644.262 165.957 643.58 165.584C642.897 165.2 642.358 164.661 641.964 163.968C641.58 163.275 641.388 162.475 641.388 161.568C641.388 160.661 641.585 159.861 641.98 159.168C642.385 158.475 642.934 157.941 643.628 157.568C644.321 157.184 645.094 156.992 645.948 156.992C646.801 156.992 647.574 157.184 648.268 157.568C648.961 157.941 649.505 158.475 649.9 159.168C650.305 159.861 650.508 160.661 650.508 161.568C650.508 162.475 650.3 163.275 649.884 163.968C649.478 164.661 648.924 165.2 648.22 165.584C647.526 165.957 646.748 166.144 645.884 166.144ZM645.884 164.192C646.289 164.192 646.668 164.096 647.02 163.904C647.382 163.701 647.67 163.403 647.884 163.008C648.097 162.613 648.204 162.133 648.204 161.568C648.204 160.725 647.98 160.08 647.532 159.632C647.094 159.173 646.556 158.944 645.916 158.944C645.276 158.944 644.737 159.173 644.3 159.632C643.873 160.08 643.66 160.725 643.66 161.568C643.66 162.411 643.868 163.061 644.284 163.52C644.71 163.968 645.244 164.192 645.884 164.192ZM656.087 166.144C655.234 166.144 654.466 165.957 653.783 165.584C653.1 165.2 652.562 164.661 652.167 163.968C651.783 163.275 651.591 162.475 651.591 161.568C651.591 160.661 651.788 159.861 652.183 159.168C652.588 158.475 653.138 157.941 653.831 157.568C654.524 157.184 655.298 156.992 656.151 156.992C657.004 156.992 657.778 157.184 658.471 157.568C659.164 157.941 659.708 158.475 660.103 159.168C660.508 159.861 660.711 160.661 660.711 161.568C660.711 162.475 660.503 163.275 660.087 163.968C659.682 164.661 659.127 165.2 658.423 165.584C657.73 165.957 656.951 166.144 656.087 166.144ZM656.087 164.192C656.492 164.192 656.871 164.096 657.223 163.904C657.586 163.701 657.874 163.403 658.087 163.008C658.3 162.613 658.407 162.133 658.407 161.568C658.407 160.725 658.183 160.08 657.735 159.632C657.298 159.173 656.759 158.944 656.119 158.944C655.479 158.944 654.94 159.173 654.503 159.632C654.076 160.08 653.863 160.725 653.863 161.568C653.863 162.411 654.071 163.061 654.487 163.52C654.914 163.968 655.447 164.192 656.087 164.192ZM667.602 166L664.594 162.224V166H662.354V154.16H664.594V160.896L667.57 157.136H670.482L666.578 161.584L670.514 166H667.602ZM678.747 161.536C678.747 160.64 678.923 159.845 679.275 159.152C679.637 158.459 680.123 157.925 680.731 157.552C681.349 157.179 682.037 156.992 682.795 156.992C683.456 156.992 684.032 157.125 684.523 157.392C685.024 157.659 685.424 157.995 685.723 158.4V157.136H687.979V166H685.723V164.704C685.435 165.12 685.035 165.467 684.523 165.744C684.021 166.011 683.44 166.144 682.779 166.144C682.032 166.144 681.349 165.952 680.731 165.568C680.123 165.184 679.637 164.645 679.275 163.952C678.923 163.248 678.747 162.443 678.747 161.536ZM685.723 161.568C685.723 161.024 685.616 160.56 685.403 160.176C685.189 159.781 684.901 159.483 684.539 159.28C684.176 159.067 683.787 158.96 683.371 158.96C682.955 158.96 682.571 159.061 682.219 159.264C681.867 159.467 681.579 159.765 681.355 160.16C681.141 160.544 681.035 161.003 681.035 161.536C681.035 162.069 681.141 162.539 681.355 162.944C681.579 163.339 681.867 163.643 682.219 163.856C682.581 164.069 682.965 164.176 683.371 164.176C683.787 164.176 684.176 164.075 684.539 163.872C684.901 163.659 685.189 163.36 685.403 162.976C685.616 162.581 685.723 162.112 685.723 161.568ZM692.407 158.432C692.695 158.005 693.089 157.659 693.591 157.392C694.103 157.125 694.684 156.992 695.335 156.992C696.092 156.992 696.775 157.179 697.383 157.552C698.001 157.925 698.487 158.459 698.839 159.152C699.201 159.835 699.383 160.629 699.383 161.536C699.383 162.443 699.201 163.248 698.839 163.952C698.487 164.645 698.001 165.184 697.383 165.568C696.775 165.952 696.092 166.144 695.335 166.144C694.673 166.144 694.092 166.016 693.591 165.76C693.1 165.493 692.705 165.152 692.407 164.736V166H690.167V154.16H692.407V158.432ZM697.095 161.536C697.095 161.003 696.983 160.544 696.759 160.16C696.545 159.765 696.257 159.467 695.895 159.264C695.543 159.061 695.159 158.96 694.743 158.96C694.337 158.96 693.953 159.067 693.591 159.28C693.239 159.483 692.951 159.781 692.727 160.176C692.513 160.571 692.407 161.035 692.407 161.568C692.407 162.101 692.513 162.565 692.727 162.96C692.951 163.355 693.239 163.659 693.591 163.872C693.953 164.075 694.337 164.176 694.743 164.176C695.159 164.176 695.543 164.069 695.895 163.856C696.257 163.643 696.545 163.339 696.759 162.944C696.983 162.549 697.095 162.08 697.095 161.536ZM704.946 166.144C704.093 166.144 703.325 165.957 702.642 165.584C701.96 165.2 701.421 164.661 701.026 163.968C700.642 163.275 700.45 162.475 700.45 161.568C700.45 160.661 700.648 159.861 701.042 159.168C701.448 158.475 701.997 157.941 702.69 157.568C703.384 157.184 704.157 156.992 705.01 156.992C705.864 156.992 706.637 157.184 707.33 157.568C708.024 157.941 708.568 158.475 708.962 159.168C709.368 159.861 709.57 160.661 709.57 161.568C709.57 162.475 709.362 163.275 708.946 163.968C708.541 164.661 707.986 165.2 707.282 165.584C706.589 165.957 705.81 166.144 704.946 166.144ZM704.946 164.192C705.352 164.192 705.73 164.096 706.082 163.904C706.445 163.701 706.733 163.403 706.946 163.008C707.16 162.613 707.266 162.133 707.266 161.568C707.266 160.725 707.042 160.08 706.594 159.632C706.157 159.173 705.618 158.944 704.978 158.944C704.338 158.944 703.8 159.173 703.362 159.632C702.936 160.08 702.722 160.725 702.722 161.568C702.722 162.411 702.93 163.061 703.346 163.52C703.773 163.968 704.306 164.192 704.946 164.192ZM719.581 157.136V166H717.325V164.88C717.037 165.264 716.659 165.568 716.189 165.792C715.731 166.005 715.229 166.112 714.685 166.112C713.992 166.112 713.379 165.968 712.845 165.68C712.312 165.381 711.891 164.949 711.581 164.384C711.283 163.808 711.133 163.125 711.133 162.336V157.136H713.373V162.016C713.373 162.72 713.549 163.264 713.901 163.648C714.253 164.021 714.733 164.208 715.341 164.208C715.96 164.208 716.445 164.021 716.797 163.648C717.149 163.264 717.325 162.72 717.325 162.016V157.136H719.581ZM724.4 158.976V163.264C724.4 163.563 724.469 163.781 724.608 163.92C724.757 164.048 725.002 164.112 725.344 164.112H726.384V166H724.976C723.088 166 722.144 165.083 722.144 163.248V158.976H721.088V157.136H722.144V154.944H724.4V157.136H726.384V158.976H724.4ZM747.908 157.136L745.316 166H742.9L741.284 159.808L739.668 166H737.236L734.628 157.136H736.9L738.468 163.888L740.164 157.136H742.532L744.196 163.872L745.764 157.136H747.908ZM754.112 157.008C754.784 157.008 755.381 157.157 755.904 157.456C756.426 157.744 756.832 158.176 757.12 158.752C757.418 159.317 757.568 160 757.568 160.8V166H755.328V161.104C755.328 160.4 755.152 159.861 754.8 159.488C754.448 159.104 753.968 158.912 753.36 158.912C752.741 158.912 752.25 159.104 751.888 159.488C751.536 159.861 751.36 160.4 751.36 161.104V166H749.12V154.16H751.36V158.24C751.648 157.856 752.032 157.557 752.512 157.344C752.992 157.12 753.525 157.008 754.112 157.008ZM760.834 156.08C760.439 156.08 760.108 155.957 759.842 155.712C759.586 155.456 759.458 155.141 759.458 154.768C759.458 154.395 759.586 154.085 759.842 153.84C760.108 153.584 760.439 153.456 760.834 153.456C761.228 153.456 761.554 153.584 761.81 153.84C762.076 154.085 762.21 154.395 762.21 154.768C762.21 155.141 762.076 155.456 761.81 155.712C761.554 155.957 761.228 156.08 760.834 156.08ZM761.938 157.136V166H759.698V157.136H761.938ZM763.575 161.568C763.575 160.651 763.762 159.851 764.135 159.168C764.508 158.475 765.026 157.941 765.687 157.568C766.348 157.184 767.106 156.992 767.959 156.992C769.058 156.992 769.964 157.269 770.679 157.824C771.404 158.368 771.89 159.136 772.135 160.128H769.719C769.591 159.744 769.372 159.445 769.063 159.232C768.764 159.008 768.391 158.896 767.943 158.896C767.303 158.896 766.796 159.131 766.423 159.6C766.05 160.059 765.863 160.715 765.863 161.568C765.863 162.411 766.05 163.067 766.423 163.536C766.796 163.995 767.303 164.224 767.943 164.224C768.85 164.224 769.442 163.819 769.719 163.008H772.135C771.89 163.968 771.404 164.731 770.679 165.296C769.954 165.861 769.047 166.144 767.959 166.144C767.106 166.144 766.348 165.957 765.687 165.584C765.026 165.2 764.508 164.667 764.135 163.984C763.762 163.291 763.575 162.485 763.575 161.568ZM778.768 157.008C779.44 157.008 780.037 157.157 780.56 157.456C781.083 157.744 781.488 158.176 781.776 158.752C782.075 159.317 782.224 160 782.224 160.8V166H779.984V161.104C779.984 160.4 779.808 159.861 779.456 159.488C779.104 159.104 778.624 158.912 778.016 158.912C777.397 158.912 776.907 159.104 776.544 159.488C776.192 159.861 776.016 160.4 776.016 161.104V166H773.776V154.16H776.016V158.24C776.304 157.856 776.688 157.557 777.168 157.344C777.648 157.12 778.181 157.008 778.768 157.008ZM794.587 158.976V163.264C794.587 163.563 794.656 163.781 794.795 163.92C794.944 164.048 795.19 164.112 795.531 164.112H796.571V166H795.163C793.275 166 792.331 165.083 792.331 163.248V158.976H791.275V157.136H792.331V154.944H794.587V157.136H796.571V158.976H794.587ZM803.174 157.008C803.846 157.008 804.443 157.157 804.966 157.456C805.489 157.744 805.894 158.176 806.182 158.752C806.481 159.317 806.63 160 806.63 160.8V166H804.39V161.104C804.39 160.4 804.214 159.861 803.862 159.488C803.51 159.104 803.03 158.912 802.422 158.912C801.803 158.912 801.313 159.104 800.95 159.488C800.598 159.861 800.422 160.4 800.422 161.104V166H798.182V154.16H800.422V158.24C800.71 157.856 801.094 157.557 801.574 157.344C802.054 157.12 802.587 157.008 803.174 157.008ZM817 161.376C817 161.696 816.979 161.984 816.936 162.24H810.456C810.51 162.88 810.734 163.381 811.128 163.744C811.523 164.107 812.008 164.288 812.584 164.288C813.416 164.288 814.008 163.931 814.36 163.216H816.776C816.52 164.069 816.03 164.773 815.304 165.328C814.579 165.872 813.688 166.144 812.632 166.144C811.779 166.144 811.011 165.957 810.328 165.584C809.656 165.2 809.128 164.661 808.744 163.968C808.371 163.275 808.184 162.475 808.184 161.568C808.184 160.651 808.371 159.845 808.744 159.152C809.118 158.459 809.64 157.925 810.312 157.552C810.984 157.179 811.758 156.992 812.632 156.992C813.475 156.992 814.227 157.173 814.888 157.536C815.56 157.899 816.078 158.416 816.44 159.088C816.814 159.749 817 160.512 817 161.376ZM814.68 160.736C814.67 160.16 814.462 159.701 814.056 159.36C813.651 159.008 813.155 158.832 812.568 158.832C812.014 158.832 811.544 159.003 811.16 159.344C810.787 159.675 810.558 160.139 810.472 160.736H814.68ZM820.875 158.512C821.163 158.043 821.537 157.675 821.995 157.408C822.465 157.141 822.998 157.008 823.595 157.008V159.36H823.003C822.299 159.36 821.766 159.525 821.403 159.856C821.051 160.187 820.875 160.763 820.875 161.584V166H818.635V157.136H820.875V158.512ZM833.344 161.376C833.344 161.696 833.323 161.984 833.28 162.24H826.8C826.853 162.88 827.077 163.381 827.472 163.744C827.867 164.107 828.352 164.288 828.928 164.288C829.76 164.288 830.352 163.931 830.704 163.216H833.12C832.864 164.069 832.373 164.773 831.648 165.328C830.923 165.872 830.032 166.144 828.976 166.144C828.123 166.144 827.355 165.957 826.672 165.584C826 165.2 825.472 164.661 825.088 163.968C824.715 163.275 824.528 162.475 824.528 161.568C824.528 160.651 824.715 159.845 825.088 159.152C825.461 158.459 825.984 157.925 826.656 157.552C827.328 157.179 828.101 156.992 828.976 156.992C829.819 156.992 830.571 157.173 831.232 157.536C831.904 157.899 832.421 158.416 832.784 159.088C833.157 159.749 833.344 160.512 833.344 161.376ZM831.024 160.736C831.013 160.16 830.805 159.701 830.4 159.36C829.995 159.008 829.499 158.832 828.912 158.832C828.357 158.832 827.888 159.003 827.504 159.344C827.131 159.675 826.901 160.139 826.816 160.736H831.024ZM555.029 180.08C554.634 180.08 554.304 179.957 554.037 179.712C553.781 179.456 553.653 179.141 553.653 178.768C553.653 178.395 553.781 178.085 554.037 177.84C554.304 177.584 554.634 177.456 555.029 177.456C555.424 177.456 555.749 177.584 556.005 177.84C556.272 178.085 556.405 178.395 556.405 178.768C556.405 179.141 556.272 179.456 556.005 179.712C555.749 179.957 555.424 180.08 555.029 180.08ZM556.133 181.136V190H553.893V181.136H556.133ZM561.738 190.144C561.013 190.144 560.362 190.016 559.786 189.76C559.21 189.493 558.752 189.136 558.41 188.688C558.08 188.24 557.898 187.744 557.866 187.2H560.122C560.165 187.541 560.33 187.824 560.618 188.048C560.917 188.272 561.285 188.384 561.722 188.384C562.149 188.384 562.48 188.299 562.714 188.128C562.96 187.957 563.082 187.739 563.082 187.472C563.082 187.184 562.933 186.971 562.634 186.832C562.346 186.683 561.882 186.523 561.242 186.352C560.581 186.192 560.037 186.027 559.61 185.856C559.194 185.685 558.832 185.424 558.522 185.072C558.224 184.72 558.074 184.245 558.074 183.648C558.074 183.157 558.213 182.709 558.49 182.304C558.778 181.899 559.184 181.579 559.706 181.344C560.24 181.109 560.864 180.992 561.578 180.992C562.634 180.992 563.477 181.259 564.106 181.792C564.736 182.315 565.082 183.024 565.146 183.92H563.002C562.97 183.568 562.821 183.291 562.554 183.088C562.298 182.875 561.952 182.768 561.514 182.768C561.109 182.768 560.794 182.843 560.57 182.992C560.357 183.141 560.25 183.349 560.25 183.616C560.25 183.915 560.4 184.144 560.698 184.304C560.997 184.453 561.461 184.608 562.09 184.768C562.73 184.928 563.258 185.093 563.674 185.264C564.09 185.435 564.448 185.701 564.746 186.064C565.056 186.416 565.216 186.885 565.226 187.472C565.226 187.984 565.082 188.443 564.794 188.848C564.517 189.253 564.112 189.573 563.578 189.808C563.056 190.032 562.442 190.144 561.738 190.144ZM575.789 181.008C576.845 181.008 577.699 181.344 578.349 182.016C579 182.677 579.325 183.605 579.325 184.8V190H577.085V185.104C577.085 184.4 576.909 183.861 576.557 183.488C576.205 183.104 575.725 182.912 575.117 182.912C574.499 182.912 574.008 183.104 573.645 183.488C573.293 183.861 573.117 184.4 573.117 185.104V190H570.877V181.136H573.117V182.24C573.416 181.856 573.795 181.557 574.253 181.344C574.723 181.12 575.235 181.008 575.789 181.008ZM585.392 190.144C584.538 190.144 583.77 189.957 583.088 189.584C582.405 189.2 581.866 188.661 581.472 187.968C581.088 187.275 580.896 186.475 580.896 185.568C580.896 184.661 581.093 183.861 581.488 183.168C581.893 182.475 582.442 181.941 583.136 181.568C583.829 181.184 584.602 180.992 585.456 180.992C586.309 180.992 587.082 181.184 587.776 181.568C588.469 181.941 589.013 182.475 589.408 183.168C589.813 183.861 590.016 184.661 590.016 185.568C590.016 186.475 589.808 187.275 589.392 187.968C588.986 188.661 588.432 189.2 587.728 189.584C587.034 189.957 586.256 190.144 585.392 190.144ZM585.392 188.192C585.797 188.192 586.176 188.096 586.528 187.904C586.89 187.701 587.178 187.403 587.392 187.008C587.605 186.613 587.712 186.133 587.712 185.568C587.712 184.725 587.488 184.08 587.04 183.632C586.602 183.173 586.064 182.944 585.424 182.944C584.784 182.944 584.245 183.173 583.808 183.632C583.381 184.08 583.168 184.725 583.168 185.568C583.168 186.411 583.376 187.061 583.792 187.52C584.218 187.968 584.752 188.192 585.392 188.192ZM594.895 185.536C594.895 184.64 595.071 183.845 595.423 183.152C595.786 182.459 596.277 181.925 596.895 181.552C597.514 181.179 598.202 180.992 598.959 180.992C599.535 180.992 600.085 181.12 600.607 181.376C601.13 181.621 601.546 181.952 601.855 182.368V178.16H604.127V190H601.855V188.688C601.578 189.125 601.189 189.477 600.687 189.744C600.186 190.011 599.605 190.144 598.943 190.144C598.197 190.144 597.514 189.952 596.895 189.568C596.277 189.184 595.786 188.645 595.423 187.952C595.071 187.248 594.895 186.443 594.895 185.536ZM601.871 185.568C601.871 185.024 601.765 184.56 601.551 184.176C601.338 183.781 601.05 183.483 600.687 183.28C600.325 183.067 599.935 182.96 599.519 182.96C599.103 182.96 598.719 183.061 598.367 183.264C598.015 183.467 597.727 183.765 597.503 184.16C597.29 184.544 597.183 185.003 597.183 185.536C597.183 186.069 597.29 186.539 597.503 186.944C597.727 187.339 598.015 187.643 598.367 187.856C598.73 188.069 599.114 188.176 599.519 188.176C599.935 188.176 600.325 188.075 600.687 187.872C601.05 187.659 601.338 187.36 601.551 186.976C601.765 186.581 601.871 186.112 601.871 185.568ZM610.251 190.144C609.398 190.144 608.63 189.957 607.947 189.584C607.264 189.2 606.726 188.661 606.331 187.968C605.947 187.275 605.755 186.475 605.755 185.568C605.755 184.661 605.952 183.861 606.347 183.168C606.752 182.475 607.302 181.941 607.995 181.568C608.688 181.184 609.462 180.992 610.315 180.992C611.168 180.992 611.942 181.184 612.635 181.568C613.328 181.941 613.872 182.475 614.267 183.168C614.672 183.861 614.875 184.661 614.875 185.568C614.875 186.475 614.667 187.275 614.251 187.968C613.846 188.661 613.291 189.2 612.587 189.584C611.894 189.957 611.115 190.144 610.251 190.144ZM610.251 188.192C610.656 188.192 611.035 188.096 611.387 187.904C611.75 187.701 612.038 187.403 612.251 187.008C612.464 186.613 612.571 186.133 612.571 185.568C612.571 184.725 612.347 184.08 611.899 183.632C611.462 183.173 610.923 182.944 610.283 182.944C609.643 182.944 609.104 183.173 608.667 183.632C608.24 184.08 608.027 184.725 608.027 185.568C608.027 186.411 608.235 187.061 608.651 187.52C609.078 187.968 609.611 188.192 610.251 188.192ZM624.886 181.136V190H622.63V188.88C622.342 189.264 621.963 189.568 621.494 189.792C621.035 190.005 620.534 190.112 619.99 190.112C619.297 190.112 618.683 189.968 618.15 189.68C617.617 189.381 617.195 188.949 616.886 188.384C616.587 187.808 616.438 187.125 616.438 186.336V181.136H618.678V186.016C618.678 186.72 618.854 187.264 619.206 187.648C619.558 188.021 620.038 188.208 620.646 188.208C621.265 188.208 621.75 188.021 622.102 187.648C622.454 187.264 622.63 186.72 622.63 186.016V181.136H624.886ZM629.336 182.432C629.624 182.005 630.019 181.659 630.52 181.392C631.032 181.125 631.614 180.992 632.264 180.992C633.022 180.992 633.704 181.179 634.312 181.552C634.931 181.925 635.416 182.459 635.768 183.152C636.131 183.835 636.312 184.629 636.312 185.536C636.312 186.443 636.131 187.248 635.768 187.952C635.416 188.645 634.931 189.184 634.312 189.568C633.704 189.952 633.022 190.144 632.264 190.144C631.603 190.144 631.022 190.016 630.52 189.76C630.03 189.493 629.635 189.152 629.336 188.736V190H627.096V178.16H629.336V182.432ZM634.024 185.536C634.024 185.003 633.912 184.544 633.688 184.16C633.475 183.765 633.187 183.467 632.824 183.264C632.472 183.061 632.088 182.96 631.672 182.96C631.267 182.96 630.883 183.067 630.52 183.28C630.168 183.483 629.88 183.781 629.656 184.176C629.443 184.571 629.336 185.035 629.336 185.568C629.336 186.101 629.443 186.565 629.656 186.96C629.88 187.355 630.168 187.659 630.52 187.872C630.883 188.075 631.267 188.176 631.672 188.176C632.088 188.176 632.472 188.069 632.824 187.856C633.187 187.643 633.475 187.339 633.688 186.944C633.912 186.549 634.024 186.08 634.024 185.536ZM640.548 182.976V187.264C640.548 187.563 640.617 187.781 640.756 187.92C640.905 188.048 641.151 188.112 641.492 188.112H642.532V190H641.124C639.236 190 638.292 189.083 638.292 187.248V182.976H637.236V181.136H638.292V178.944H640.548V181.136H642.532V182.976H640.548ZM646.591 187.648L644.719 192.144H643.279L644.319 187.648H646.591ZM658.866 187.872H654.418L653.682 190H651.33L655.346 178.816H657.954L661.97 190H659.602L658.866 187.872ZM658.258 186.08L656.642 181.408L655.026 186.08H658.258ZM670.756 180.992C671.417 180.992 671.998 181.125 672.5 181.392C673.001 181.648 673.396 181.984 673.684 182.4V181.136H675.94V190.064C675.94 190.885 675.774 191.616 675.444 192.256C675.113 192.907 674.617 193.419 673.956 193.792C673.294 194.176 672.494 194.368 671.556 194.368C670.297 194.368 669.262 194.075 668.452 193.488C667.652 192.901 667.198 192.101 667.092 191.088H669.316C669.433 191.493 669.684 191.813 670.068 192.048C670.462 192.293 670.937 192.416 671.492 192.416C672.142 192.416 672.67 192.219 673.076 191.824C673.481 191.44 673.684 190.853 673.684 190.064V188.688C673.396 189.104 672.996 189.451 672.484 189.728C671.982 190.005 671.406 190.144 670.756 190.144C670.009 190.144 669.326 189.952 668.708 189.568C668.089 189.184 667.598 188.645 667.236 187.952C666.884 187.248 666.708 186.443 666.708 185.536C666.708 184.64 666.884 183.845 667.236 183.152C667.598 182.459 668.084 181.925 668.692 181.552C669.31 181.179 669.998 180.992 670.756 180.992ZM673.684 185.568C673.684 185.024 673.577 184.56 673.364 184.176C673.15 183.781 672.862 183.483 672.5 183.28C672.137 183.067 671.748 182.96 671.332 182.96C670.916 182.96 670.532 183.061 670.18 183.264C669.828 183.467 669.54 183.765 669.316 184.16C669.102 184.544 668.996 185.003 668.996 185.536C668.996 186.069 669.102 186.539 669.316 186.944C669.54 187.339 669.828 187.643 670.18 187.856C670.542 188.069 670.926 188.176 671.332 188.176C671.748 188.176 672.137 188.075 672.5 187.872C672.862 187.659 673.15 187.36 673.364 186.976C673.577 186.581 673.684 186.112 673.684 185.568ZM686.495 181.136V190H684.239V188.88C683.951 189.264 683.573 189.568 683.103 189.792C682.645 190.005 682.143 190.112 681.599 190.112C680.906 190.112 680.293 189.968 679.759 189.68C679.226 189.381 678.805 188.949 678.495 188.384C678.197 187.808 678.047 187.125 678.047 186.336V181.136H680.287V186.016C680.287 186.72 680.463 187.264 680.815 187.648C681.167 188.021 681.647 188.208 682.255 188.208C682.874 188.208 683.359 188.021 683.711 187.648C684.063 187.264 684.239 186.72 684.239 186.016V181.136H686.495ZM689.842 180.08C689.447 180.08 689.116 179.957 688.85 179.712C688.594 179.456 688.466 179.141 688.466 178.768C688.466 178.395 688.594 178.085 688.85 177.84C689.116 177.584 689.447 177.456 689.842 177.456C690.236 177.456 690.562 177.584 690.818 177.84C691.084 178.085 691.218 178.395 691.218 178.768C691.218 179.141 691.084 179.456 690.818 179.712C690.562 179.957 690.236 180.08 689.842 180.08ZM690.946 181.136V190H688.706V181.136H690.946ZM692.583 185.536C692.583 184.64 692.759 183.845 693.111 183.152C693.473 182.459 693.964 181.925 694.583 181.552C695.201 181.179 695.889 180.992 696.647 180.992C697.223 180.992 697.772 181.12 698.295 181.376C698.817 181.621 699.233 181.952 699.543 182.368V178.16H701.815V190H699.543V188.688C699.265 189.125 698.876 189.477 698.375 189.744C697.873 190.011 697.292 190.144 696.631 190.144C695.884 190.144 695.201 189.952 694.583 189.568C693.964 189.184 693.473 188.645 693.111 187.952C692.759 187.248 692.583 186.443 692.583 185.536ZM699.559 185.568C699.559 185.024 699.452 184.56 699.239 184.176C699.025 183.781 698.737 183.483 698.375 183.28C698.012 183.067 697.623 182.96 697.207 182.96C696.791 182.96 696.407 183.061 696.055 183.264C695.703 183.467 695.415 183.765 695.191 184.16C694.977 184.544 694.871 185.003 694.871 185.536C694.871 186.069 694.977 186.539 695.191 186.944C695.415 187.339 695.703 187.643 696.055 187.856C696.417 188.069 696.801 188.176 697.207 188.176C697.623 188.176 698.012 188.075 698.375 187.872C698.737 187.659 699.025 187.36 699.239 186.976C699.452 186.581 699.559 186.112 699.559 185.568ZM703.426 185.536C703.426 184.64 703.602 183.845 703.954 183.152C704.317 182.459 704.802 181.925 705.41 181.552C706.029 181.179 706.717 180.992 707.474 180.992C708.136 180.992 708.712 181.125 709.202 181.392C709.704 181.659 710.104 181.995 710.402 182.4V181.136H712.658V190H710.402V188.704C710.114 189.12 709.714 189.467 709.202 189.744C708.701 190.011 708.12 190.144 707.458 190.144C706.712 190.144 706.029 189.952 705.41 189.568C704.802 189.184 704.317 188.645 703.954 187.952C703.602 187.248 703.426 186.443 703.426 185.536ZM710.402 185.568C710.402 185.024 710.296 184.56 710.082 184.176C709.869 183.781 709.581 183.483 709.218 183.28C708.856 183.067 708.466 182.96 708.05 182.96C707.634 182.96 707.25 183.061 706.898 183.264C706.546 183.467 706.258 183.765 706.034 184.16C705.821 184.544 705.714 185.003 705.714 185.536C705.714 186.069 705.821 186.539 706.034 186.944C706.258 187.339 706.546 187.643 706.898 187.856C707.261 188.069 707.645 188.176 708.05 188.176C708.466 188.176 708.856 188.075 709.218 187.872C709.581 187.659 709.869 187.36 710.082 186.976C710.296 186.581 710.402 186.112 710.402 185.568ZM719.758 181.008C720.814 181.008 721.668 181.344 722.318 182.016C722.969 182.677 723.294 183.605 723.294 184.8V190H721.054V185.104C721.054 184.4 720.878 183.861 720.526 183.488C720.174 183.104 719.694 182.912 719.086 182.912C718.468 182.912 717.977 183.104 717.614 183.488C717.262 183.861 717.086 184.4 717.086 185.104V190H714.846V181.136H717.086V182.24C717.385 181.856 717.764 181.557 718.222 181.344C718.692 181.12 719.204 181.008 719.758 181.008ZM724.848 185.568C724.848 184.651 725.035 183.851 725.408 183.168C725.782 182.475 726.299 181.941 726.96 181.568C727.622 181.184 728.379 180.992 729.232 180.992C730.331 180.992 731.238 181.269 731.952 181.824C732.678 182.368 733.163 183.136 733.408 184.128H730.992C730.864 183.744 730.646 183.445 730.336 183.232C730.038 183.008 729.664 182.896 729.216 182.896C728.576 182.896 728.07 183.131 727.696 183.6C727.323 184.059 727.136 184.715 727.136 185.568C727.136 186.411 727.323 187.067 727.696 187.536C728.07 187.995 728.576 188.224 729.216 188.224C730.123 188.224 730.715 187.819 730.992 187.008H733.408C733.163 187.968 732.678 188.731 731.952 189.296C731.227 189.861 730.32 190.144 729.232 190.144C728.379 190.144 727.622 189.957 726.96 189.584C726.299 189.2 725.782 188.667 725.408 187.984C725.035 187.291 724.848 186.485 724.848 185.568ZM743.289 185.376C743.289 185.696 743.268 185.984 743.225 186.24H736.745C736.799 186.88 737.023 187.381 737.417 187.744C737.812 188.107 738.297 188.288 738.873 188.288C739.705 188.288 740.297 187.931 740.649 187.216H743.065C742.809 188.069 742.319 188.773 741.593 189.328C740.868 189.872 739.977 190.144 738.921 190.144C738.068 190.144 737.3 189.957 736.617 189.584C735.945 189.2 735.417 188.661 735.033 187.968C734.66 187.275 734.473 186.475 734.473 185.568C734.473 184.651 734.66 183.845 735.033 183.152C735.407 182.459 735.929 181.925 736.601 181.552C737.273 181.179 738.047 180.992 738.921 180.992C739.764 180.992 740.516 181.173 741.177 181.536C741.849 181.899 742.367 182.416 742.729 183.088C743.103 183.749 743.289 184.512 743.289 185.376ZM740.969 184.736C740.959 184.16 740.751 183.701 740.345 183.36C739.94 183.008 739.444 182.832 738.857 182.832C738.303 182.832 737.833 183.003 737.449 183.344C737.076 183.675 736.847 184.139 736.761 184.736H740.969ZM752.801 182.976H751.249V190H748.977V182.976H747.969V181.136H748.977V180.688C748.977 179.6 749.286 178.8 749.905 178.288C750.523 177.776 751.457 177.536 752.705 177.568V179.456C752.161 179.445 751.782 179.536 751.569 179.728C751.355 179.92 751.249 180.267 751.249 180.768V181.136H752.801V182.976ZM758.188 190.144C757.335 190.144 756.567 189.957 755.884 189.584C755.202 189.2 754.663 188.661 754.268 187.968C753.884 187.275 753.692 186.475 753.692 185.568C753.692 184.661 753.89 183.861 754.284 183.168C754.69 182.475 755.239 181.941 755.932 181.568C756.626 181.184 757.399 180.992 758.252 180.992C759.106 180.992 759.879 181.184 760.572 181.568C761.266 181.941 761.81 182.475 762.204 183.168C762.61 183.861 762.812 184.661 762.812 185.568C762.812 186.475 762.604 187.275 762.188 187.968C761.783 188.661 761.228 189.2 760.524 189.584C759.831 189.957 759.052 190.144 758.188 190.144ZM758.188 188.192C758.594 188.192 758.972 188.096 759.324 187.904C759.687 187.701 759.975 187.403 760.188 187.008C760.402 186.613 760.508 186.133 760.508 185.568C760.508 184.725 760.284 184.08 759.836 183.632C759.399 183.173 758.86 182.944 758.22 182.944C757.58 182.944 757.042 183.173 756.604 183.632C756.178 184.08 755.964 184.725 755.964 185.568C755.964 186.411 756.172 187.061 756.588 187.52C757.015 187.968 757.548 188.192 758.188 188.192ZM766.696 182.512C766.984 182.043 767.357 181.675 767.816 181.408C768.285 181.141 768.818 181.008 769.416 181.008V183.36H768.824C768.12 183.36 767.586 183.525 767.224 183.856C766.872 184.187 766.696 184.763 766.696 185.584V190H764.456V181.136H766.696V182.512ZM777.345 182.976V187.264C777.345 187.563 777.414 187.781 777.553 187.92C777.702 188.048 777.947 188.112 778.289 188.112H779.329V190H777.921C776.033 190 775.089 189.083 775.089 187.248V182.976H774.033V181.136H775.089V178.944H777.345V181.136H779.329V182.976H777.345ZM785.932 181.008C786.604 181.008 787.201 181.157 787.724 181.456C788.247 181.744 788.652 182.176 788.94 182.752C789.239 183.317 789.388 184 789.388 184.8V190H787.148V185.104C787.148 184.4 786.972 183.861 786.62 183.488C786.268 183.104 785.788 182.912 785.18 182.912C784.561 182.912 784.071 183.104 783.708 183.488C783.356 183.861 783.18 184.4 783.18 185.104V190H780.94V178.16H783.18V182.24C783.468 181.856 783.852 181.557 784.332 181.344C784.812 181.12 785.345 181.008 785.932 181.008ZM795.454 190.144C794.601 190.144 793.833 189.957 793.15 189.584C792.467 189.2 791.929 188.661 791.534 187.968C791.15 187.275 790.958 186.475 790.958 185.568C790.958 184.661 791.155 183.861 791.55 183.168C791.955 182.475 792.505 181.941 793.198 181.568C793.891 181.184 794.665 180.992 795.518 180.992C796.371 180.992 797.145 181.184 797.838 181.568C798.531 181.941 799.075 182.475 799.47 183.168C799.875 183.861 800.078 184.661 800.078 185.568C800.078 186.475 799.87 187.275 799.454 187.968C799.049 188.661 798.494 189.2 797.79 189.584C797.097 189.957 796.318 190.144 795.454 190.144ZM795.454 188.192C795.859 188.192 796.238 188.096 796.59 187.904C796.953 187.701 797.241 187.403 797.454 187.008C797.667 186.613 797.774 186.133 797.774 185.568C797.774 184.725 797.55 184.08 797.102 183.632C796.665 183.173 796.126 182.944 795.486 182.944C794.846 182.944 794.307 183.173 793.87 183.632C793.443 184.08 793.23 184.725 793.23 185.568C793.23 186.411 793.438 187.061 793.854 187.52C794.281 187.968 794.814 188.192 795.454 188.192ZM805.113 190.144C804.388 190.144 803.737 190.016 803.161 189.76C802.585 189.493 802.127 189.136 801.785 188.688C801.455 188.24 801.273 187.744 801.241 187.2H803.497C803.54 187.541 803.705 187.824 803.993 188.048C804.292 188.272 804.66 188.384 805.097 188.384C805.524 188.384 805.855 188.299 806.089 188.128C806.335 187.957 806.457 187.739 806.457 187.472C806.457 187.184 806.308 186.971 806.009 186.832C805.721 186.683 805.257 186.523 804.617 186.352C803.956 186.192 803.412 186.027 802.985 185.856C802.569 185.685 802.207 185.424 801.897 185.072C801.599 184.72 801.449 184.245 801.449 183.648C801.449 183.157 801.588 182.709 801.865 182.304C802.153 181.899 802.559 181.579 803.081 181.344C803.615 181.109 804.239 180.992 804.953 180.992C806.009 180.992 806.852 181.259 807.481 181.792C808.111 182.315 808.457 183.024 808.521 183.92H806.377C806.345 183.568 806.196 183.291 805.929 183.088C805.673 182.875 805.327 182.768 804.889 182.768C804.484 182.768 804.169 182.843 803.945 182.992C803.732 183.141 803.625 183.349 803.625 183.616C803.625 183.915 803.775 184.144 804.073 184.304C804.372 184.453 804.836 184.608 805.465 184.768C806.105 184.928 806.633 185.093 807.049 185.264C807.465 185.435 807.823 185.701 808.121 186.064C808.431 186.416 808.591 186.885 808.601 187.472C808.601 187.984 808.457 188.443 808.169 188.848C807.892 189.253 807.487 189.573 806.953 189.808C806.431 190.032 805.817 190.144 805.113 190.144ZM818.68 185.376C818.68 185.696 818.659 185.984 818.616 186.24H812.136C812.189 186.88 812.413 187.381 812.808 187.744C813.203 188.107 813.688 188.288 814.264 188.288C815.096 188.288 815.688 187.931 816.04 187.216H818.456C818.2 188.069 817.709 188.773 816.984 189.328C816.259 189.872 815.368 190.144 814.312 190.144C813.459 190.144 812.691 189.957 812.008 189.584C811.336 189.2 810.808 188.661 810.424 187.968C810.051 187.275 809.864 186.475 809.864 185.568C809.864 184.651 810.051 183.845 810.424 183.152C810.797 182.459 811.32 181.925 811.992 181.552C812.664 181.179 813.437 180.992 814.312 180.992C815.155 180.992 815.907 181.173 816.568 181.536C817.24 181.899 817.757 182.416 818.12 183.088C818.493 183.749 818.68 184.512 818.68 185.376ZM816.36 184.736C816.349 184.16 816.141 183.701 815.736 183.36C815.331 183.008 814.835 182.832 814.248 182.832C813.693 182.832 813.224 183.003 812.84 183.344C812.467 183.675 812.237 184.139 812.152 184.736H816.36ZM608.801 209.568C608.801 208.651 608.988 207.851 609.361 207.168C609.735 206.475 610.252 205.941 610.913 205.568C611.575 205.184 612.332 204.992 613.185 204.992C614.284 204.992 615.191 205.269 615.905 205.824C616.631 206.368 617.116 207.136 617.361 208.128H614.945C614.817 207.744 614.599 207.445 614.289 207.232C613.991 207.008 613.617 206.896 613.169 206.896C612.529 206.896 612.023 207.131 611.649 207.6C611.276 208.059 611.089 208.715 611.089 209.568C611.089 210.411 611.276 211.067 611.649 211.536C612.023 211.995 612.529 212.224 613.169 212.224C614.076 212.224 614.668 211.819 614.945 211.008H617.361C617.116 211.968 616.631 212.731 615.905 213.296C615.18 213.861 614.273 214.144 613.185 214.144C612.332 214.144 611.575 213.957 610.913 213.584C610.252 213.2 609.735 212.667 609.361 211.984C608.988 211.291 608.801 210.485 608.801 209.568ZM622.938 214.144C622.085 214.144 621.317 213.957 620.634 213.584C619.952 213.2 619.413 212.661 619.018 211.968C618.634 211.275 618.442 210.475 618.442 209.568C618.442 208.661 618.64 207.861 619.034 207.168C619.44 206.475 619.989 205.941 620.682 205.568C621.376 205.184 622.149 204.992 623.002 204.992C623.856 204.992 624.629 205.184 625.322 205.568C626.016 205.941 626.56 206.475 626.954 207.168C627.36 207.861 627.562 208.661 627.562 209.568C627.562 210.475 627.354 211.275 626.938 211.968C626.533 212.661 625.978 213.2 625.274 213.584C624.581 213.957 623.802 214.144 622.938 214.144ZM622.938 212.192C623.344 212.192 623.722 212.096 624.074 211.904C624.437 211.701 624.725 211.403 624.938 211.008C625.152 210.613 625.258 210.133 625.258 209.568C625.258 208.725 625.034 208.08 624.586 207.632C624.149 207.173 623.61 206.944 622.97 206.944C622.33 206.944 621.792 207.173 621.354 207.632C620.928 208.08 620.714 208.725 620.714 209.568C620.714 210.411 620.922 211.061 621.338 211.52C621.765 211.968 622.298 212.192 622.938 212.192ZM634.118 205.008C635.174 205.008 636.027 205.344 636.678 206.016C637.328 206.677 637.654 207.605 637.654 208.8V214H635.414V209.104C635.414 208.4 635.238 207.861 634.886 207.488C634.534 207.104 634.054 206.912 633.446 206.912C632.827 206.912 632.336 207.104 631.974 207.488C631.622 207.861 631.446 208.4 631.446 209.104V214H629.206V205.136H631.446V206.24C631.744 205.856 632.123 205.557 632.582 205.344C633.051 205.12 633.563 205.008 634.118 205.008ZM643.176 214.144C642.45 214.144 641.8 214.016 641.224 213.76C640.648 213.493 640.189 213.136 639.848 212.688C639.517 212.24 639.336 211.744 639.304 211.2H641.56C641.602 211.541 641.768 211.824 642.056 212.048C642.354 212.272 642.722 212.384 643.16 212.384C643.586 212.384 643.917 212.299 644.152 212.128C644.397 211.957 644.52 211.739 644.52 211.472C644.52 211.184 644.37 210.971 644.072 210.832C643.784 210.683 643.32 210.523 642.68 210.352C642.018 210.192 641.474 210.027 641.048 209.856C640.632 209.685 640.269 209.424 639.96 209.072C639.661 208.72 639.512 208.245 639.512 207.648C639.512 207.157 639.65 206.709 639.928 206.304C640.216 205.899 640.621 205.579 641.144 205.344C641.677 205.109 642.301 204.992 643.016 204.992C644.072 204.992 644.914 205.259 645.544 205.792C646.173 206.315 646.52 207.024 646.584 207.92H644.44C644.408 207.568 644.258 207.291 643.992 207.088C643.736 206.875 643.389 206.768 642.952 206.768C642.546 206.768 642.232 206.843 642.008 206.992C641.794 207.141 641.688 207.349 641.688 207.616C641.688 207.915 641.837 208.144 642.136 208.304C642.434 208.453 642.898 208.608 643.528 208.768C644.168 208.928 644.696 209.093 645.112 209.264C645.528 209.435 645.885 209.701 646.184 210.064C646.493 210.416 646.653 210.885 646.664 211.472C646.664 211.984 646.52 212.443 646.232 212.848C645.954 213.253 645.549 213.573 645.016 213.808C644.493 214.032 643.88 214.144 643.176 214.144ZM647.926 209.568C647.926 208.651 648.113 207.851 648.486 207.168C648.86 206.475 649.377 205.941 650.038 205.568C650.7 205.184 651.457 204.992 652.31 204.992C653.409 204.992 654.316 205.269 655.03 205.824C655.756 206.368 656.241 207.136 656.486 208.128H654.07C653.942 207.744 653.724 207.445 653.414 207.232C653.116 207.008 652.742 206.896 652.294 206.896C651.654 206.896 651.148 207.131 650.774 207.6C650.401 208.059 650.214 208.715 650.214 209.568C650.214 210.411 650.401 211.067 650.774 211.536C651.148 211.995 651.654 212.224 652.294 212.224C653.201 212.224 653.793 211.819 654.07 211.008H656.486C656.241 211.968 655.756 212.731 655.03 213.296C654.305 213.861 653.398 214.144 652.31 214.144C651.457 214.144 650.7 213.957 650.038 213.584C649.377 213.2 648.86 212.667 648.486 211.984C648.113 211.291 647.926 210.485 647.926 209.568ZM659.263 204.08C658.869 204.08 658.538 203.957 658.271 203.712C658.015 203.456 657.887 203.141 657.887 202.768C657.887 202.395 658.015 202.085 658.271 201.84C658.538 201.584 658.869 201.456 659.263 201.456C659.658 201.456 659.983 201.584 660.239 201.84C660.506 202.085 660.639 202.395 660.639 202.768C660.639 203.141 660.506 203.456 660.239 203.712C659.983 203.957 659.658 204.08 659.263 204.08ZM660.367 205.136V214H658.127V205.136H660.367ZM666.517 214.144C665.663 214.144 664.895 213.957 664.213 213.584C663.53 213.2 662.991 212.661 662.597 211.968C662.213 211.275 662.021 210.475 662.021 209.568C662.021 208.661 662.218 207.861 662.613 207.168C663.018 206.475 663.567 205.941 664.261 205.568C664.954 205.184 665.727 204.992 666.581 204.992C667.434 204.992 668.207 205.184 668.901 205.568C669.594 205.941 670.138 206.475 670.533 207.168C670.938 207.861 671.141 208.661 671.141 209.568C671.141 210.475 670.933 211.275 670.517 211.968C670.111 212.661 669.557 213.2 668.853 213.584C668.159 213.957 667.381 214.144 666.517 214.144ZM666.517 212.192C666.922 212.192 667.301 212.096 667.653 211.904C668.015 211.701 668.303 211.403 668.517 211.008C668.73 210.613 668.837 210.133 668.837 209.568C668.837 208.725 668.613 208.08 668.165 207.632C667.727 207.173 667.189 206.944 666.549 206.944C665.909 206.944 665.37 207.173 664.933 207.632C664.506 208.08 664.293 208.725 664.293 209.568C664.293 210.411 664.501 211.061 664.917 211.52C665.343 211.968 665.877 212.192 666.517 212.192ZM681.152 205.136V214H678.896V212.88C678.608 213.264 678.229 213.568 677.76 213.792C677.301 214.005 676.8 214.112 676.256 214.112C675.562 214.112 674.949 213.968 674.416 213.68C673.882 213.381 673.461 212.949 673.152 212.384C672.853 211.808 672.704 211.125 672.704 210.336V205.136H674.944V210.016C674.944 210.72 675.12 211.264 675.472 211.648C675.824 212.021 676.304 212.208 676.912 212.208C677.53 212.208 678.016 212.021 678.368 211.648C678.72 211.264 678.896 210.72 678.896 210.016V205.136H681.152ZM686.754 214.144C686.028 214.144 685.378 214.016 684.802 213.76C684.226 213.493 683.767 213.136 683.426 212.688C683.095 212.24 682.914 211.744 682.882 211.2H685.138C685.18 211.541 685.346 211.824 685.634 212.048C685.932 212.272 686.3 212.384 686.738 212.384C687.164 212.384 687.495 212.299 687.73 212.128C687.975 211.957 688.098 211.739 688.098 211.472C688.098 211.184 687.948 210.971 687.65 210.832C687.362 210.683 686.898 210.523 686.258 210.352C685.596 210.192 685.052 210.027 684.626 209.856C684.21 209.685 683.847 209.424 683.538 209.072C683.239 208.72 683.09 208.245 683.09 207.648C683.09 207.157 683.228 206.709 683.506 206.304C683.794 205.899 684.199 205.579 684.722 205.344C685.255 205.109 685.879 204.992 686.594 204.992C687.65 204.992 688.492 205.259 689.122 205.792C689.751 206.315 690.098 207.024 690.162 207.92H688.018C687.986 207.568 687.836 207.291 687.57 207.088C687.314 206.875 686.967 206.768 686.53 206.768C686.124 206.768 685.81 206.843 685.586 206.992C685.372 207.141 685.266 207.349 685.266 207.616C685.266 207.915 685.415 208.144 685.714 208.304C686.012 208.453 686.476 208.608 687.106 208.768C687.746 208.928 688.274 209.093 688.69 209.264C689.106 209.435 689.463 209.701 689.762 210.064C690.071 210.416 690.231 210.885 690.242 211.472C690.242 211.984 690.098 212.443 689.81 212.848C689.532 213.253 689.127 213.573 688.594 213.808C688.071 214.032 687.458 214.144 686.754 214.144ZM699.829 214.144C698.976 214.144 698.208 213.957 697.525 213.584C696.842 213.2 696.304 212.661 695.909 211.968C695.525 211.275 695.333 210.475 695.333 209.568C695.333 208.661 695.53 207.861 695.925 207.168C696.33 206.475 696.88 205.941 697.573 205.568C698.266 205.184 699.04 204.992 699.893 204.992C700.746 204.992 701.52 205.184 702.213 205.568C702.906 205.941 703.45 206.475 703.845 207.168C704.25 207.861 704.453 208.661 704.453 209.568C704.453 210.475 704.245 211.275 703.829 211.968C703.424 212.661 702.869 213.2 702.165 213.584C701.472 213.957 700.693 214.144 699.829 214.144ZM699.829 212.192C700.234 212.192 700.613 212.096 700.965 211.904C701.328 211.701 701.616 211.403 701.829 211.008C702.042 210.613 702.149 210.133 702.149 209.568C702.149 208.725 701.925 208.08 701.477 207.632C701.04 207.173 700.501 206.944 699.861 206.944C699.221 206.944 698.682 207.173 698.245 207.632C697.818 208.08 697.605 208.725 697.605 209.568C697.605 210.411 697.813 211.061 698.229 211.52C698.656 211.968 699.189 212.192 699.829 212.192ZM710.16 206.976H708.608V214H706.336V206.976H705.328V205.136H706.336V204.688C706.336 203.6 706.646 202.8 707.264 202.288C707.883 201.776 708.816 201.536 710.064 201.568V203.456C709.52 203.445 709.142 203.536 708.928 203.728C708.715 203.92 708.608 204.267 708.608 204.768V205.136H710.16V206.976ZM722.272 211.872H717.824L717.088 214H714.736L718.752 202.816H721.36L725.376 214H723.008L722.272 211.872ZM721.664 210.08L720.048 205.408L718.432 210.08H721.664ZM729.117 202.16V214H726.877V202.16H729.117ZM733.571 202.16V214H731.331V202.16H733.571ZM735.208 209.536C735.208 208.64 735.384 207.845 735.736 207.152C736.098 206.459 736.584 205.925 737.192 205.552C737.81 205.179 738.498 204.992 739.256 204.992C739.917 204.992 740.493 205.125 740.984 205.392C741.485 205.659 741.885 205.995 742.184 206.4V205.136H744.44V214H742.184V212.704C741.896 213.12 741.496 213.467 740.984 213.744C740.482 214.011 739.901 214.144 739.24 214.144C738.493 214.144 737.81 213.952 737.192 213.568C736.584 213.184 736.098 212.645 735.736 211.952C735.384 211.248 735.208 210.443 735.208 209.536ZM742.184 209.568C742.184 209.024 742.077 208.56 741.864 208.176C741.65 207.781 741.362 207.483 741 207.28C740.637 207.067 740.248 206.96 739.832 206.96C739.416 206.96 739.032 207.061 738.68 207.264C738.328 207.467 738.04 207.765 737.816 208.16C737.602 208.544 737.496 209.003 737.496 209.536C737.496 210.069 737.602 210.539 737.816 210.944C738.04 211.339 738.328 211.643 738.68 211.856C739.042 212.069 739.426 212.176 739.832 212.176C740.248 212.176 740.637 212.075 741 211.872C741.362 211.659 741.65 211.36 741.864 210.976C742.077 210.581 742.184 210.112 742.184 209.568ZM751.619 205.008C752.291 205.008 752.889 205.157 753.411 205.456C753.934 205.744 754.339 206.176 754.627 206.752C754.926 207.317 755.075 208 755.075 208.8V214H752.835V209.104C752.835 208.4 752.659 207.861 752.307 207.488C751.955 207.104 751.475 206.912 750.867 206.912C750.249 206.912 749.758 207.104 749.395 207.488C749.043 207.861 748.867 208.4 748.867 209.104V214H746.627V202.16H748.867V206.24C749.155 205.856 749.539 205.557 750.019 205.344C750.499 205.12 751.033 205.008 751.619 205.008ZM757.654 202.832H760.006L758.278 206.864H756.742L757.654 202.832ZM760.886 202.832H763.238L761.51 206.864H759.974L760.886 202.832Z" fill="#7C7C7C"/>
<path d="M576.838 87.818H561.826L559.342 95H551.404L564.958 57.254H573.76L587.314 95H579.322L576.838 87.818ZM574.786 81.77L569.332 66.002L563.878 81.77H574.786ZM599.94 55.04V95H592.38V55.04H599.94ZM630.414 72.536V78.908H607.518V72.536H630.414ZM666.972 101.642L661.248 94.784C659.664 95.18 658.044 95.378 656.388 95.378C652.86 95.378 649.62 94.55 646.668 92.894C643.716 91.238 641.376 88.952 639.648 86.036C637.92 83.084 637.056 79.754 637.056 76.046C637.056 72.374 637.92 69.08 639.648 66.164C641.376 63.212 643.716 60.908 646.668 59.252C649.62 57.596 652.86 56.768 656.388 56.768C659.952 56.768 663.192 57.596 666.108 59.252C669.06 60.908 671.382 63.212 673.074 66.164C674.802 69.08 675.666 72.374 675.666 76.046C675.666 79.394 674.946 82.454 673.506 85.226C672.102 87.962 670.176 90.194 667.728 91.922L676.368 101.642H666.972ZM644.832 76.046C644.832 78.566 645.318 80.78 646.29 82.688C647.262 84.596 648.612 86.072 650.34 87.116C652.104 88.124 654.12 88.628 656.388 88.628C658.656 88.628 660.654 88.124 662.382 87.116C664.11 86.072 665.46 84.596 666.432 82.688C667.404 80.78 667.89 78.566 667.89 76.046C667.89 73.526 667.404 71.33 666.432 69.458C665.46 67.55 664.11 66.092 662.382 65.084C660.654 64.076 658.656 63.572 656.388 63.572C654.12 63.572 652.104 64.076 650.34 65.084C648.612 66.092 647.262 67.55 646.29 69.458C645.318 71.33 644.832 73.526 644.832 76.046ZM709.638 65.084V95H702.024V91.22C701.052 92.516 699.774 93.542 698.19 94.298C696.642 95.018 694.95 95.378 693.114 95.378C690.774 95.378 688.704 94.892 686.904 93.92C685.104 92.912 683.682 91.454 682.638 89.546C681.63 87.602 681.126 85.298 681.126 82.634V65.084H688.686V81.554C688.686 83.93 689.28 85.766 690.468 87.062C691.656 88.322 693.276 88.952 695.328 88.952C697.416 88.952 699.054 88.322 700.242 87.062C701.43 85.766 702.024 83.93 702.024 81.554V65.084H709.638ZM724.657 69.728C725.629 68.144 726.889 66.902 728.437 66.002C730.021 65.102 731.821 64.652 733.837 64.652V72.59H731.839C729.463 72.59 727.663 73.148 726.439 74.264C725.251 75.38 724.657 77.324 724.657 80.096V95H717.097V65.084H724.657V69.728ZM740.441 57.308H748.379L742.547 70.916H737.363L740.441 57.308ZM751.856 79.934C751.856 76.91 752.45 74.228 753.638 71.888C754.862 69.548 756.5 67.748 758.552 66.488C760.64 65.228 762.962 64.598 765.518 64.598C767.75 64.598 769.694 65.048 771.35 65.948C773.042 66.848 774.392 67.982 775.4 69.35V65.084H783.014V95H775.4V90.626C774.428 92.03 773.078 93.2 771.35 94.136C769.658 95.036 767.696 95.486 765.464 95.486C762.944 95.486 760.64 94.838 758.552 93.542C756.5 92.246 754.862 90.428 753.638 88.088C752.45 85.712 751.856 82.994 751.856 79.934ZM775.4 80.042C775.4 78.206 775.04 76.64 774.32 75.344C773.6 74.012 772.628 73.004 771.404 72.32C770.18 71.6 768.866 71.24 767.462 71.24C766.058 71.24 764.762 71.582 763.574 72.266C762.386 72.95 761.414 73.958 760.658 75.29C759.938 76.586 759.578 78.134 759.578 79.934C759.578 81.734 759.938 83.318 760.658 84.686C761.414 86.018 762.386 87.044 763.574 87.764C764.798 88.484 766.094 88.844 767.462 88.844C768.866 88.844 770.18 88.502 771.404 87.818C772.628 87.098 773.6 86.09 774.32 84.794C775.04 83.462 775.4 81.878 775.4 80.042ZM806.976 64.652C810.54 64.652 813.42 65.786 815.616 68.054C817.812 70.286 818.91 73.418 818.91 77.45V95H811.35V78.476C811.35 76.1 810.756 74.282 809.568 73.022C808.38 71.726 806.76 71.078 804.708 71.078C802.62 71.078 800.964 71.726 799.74 73.022C798.552 74.282 797.958 76.1 797.958 78.476V95H790.398V65.084H797.958V68.81C798.966 67.514 800.244 66.506 801.792 65.786C803.376 65.03 805.104 64.652 806.976 64.652Z" fill="#3E8A8E"/>
</svg>
